<?xml version="1.0" encoding="UTF-8" standalone="no"?>
<!-- Generator: Adobe Illustrator 19.0.0, SVG Export Plug-In . SVG Version: 6.00 Build 0)  -->

<svg
   xmlns:dc="http://purl.org/dc/elements/1.1/"
   xmlns:cc="http://creativecommons.org/ns#"
   xmlns:rdf="http://www.w3.org/1999/02/22-rdf-syntax-ns#"
   xmlns:svg="http://www.w3.org/2000/svg"
   xmlns="http://www.w3.org/2000/svg"
   xmlns:sodipodi="http://sodipodi.sourceforge.net/DTD/sodipodi-0.dtd"
   xmlns:inkscape="http://www.inkscape.org/namespaces/inkscape"
   version="1.1"
   id="Layer_1"
   x="0px"
   y="0px"
   viewBox="0 0 408.788 408.788"
   style="enable-background:new 0 0 408.788 408.788;"
   xml:space="preserve"
   sodipodi:docname="facebook.svg"
   inkscape:version="0.92.4 (5da689c313, 2019-01-14)"><metadata
   id="metadata4639"><rdf:RDF><cc:Work
       rdf:about=""><dc:format>image/svg+xml</dc:format><dc:type
         rdf:resource="http://purl.org/dc/dcmitype/StillImage" /></cc:Work></rdf:RDF></metadata><defs
   id="defs4637" /><sodipodi:namedview
   pagecolor="#ffffff"
   bordercolor="#666666"
   borderopacity="1"
   objecttolerance="10"
   gridtolerance="10"
   guidetolerance="10"
   inkscape:pageopacity="0"
   inkscape:pageshadow="2"
   inkscape:window-width="1920"
   inkscape:window-height="1001"
   id="namedview4635"
   showgrid="false"
   inkscape:zoom="0.57731637"
   inkscape:cx="-95.268389"
   inkscape:cy="204.394"
   inkscape:window-x="-9"
   inkscape:window-y="-9"
   inkscape:window-maximized="1"
   inkscape:current-layer="Layer_1" />
<path
   style="fill:#475993;"
   d="M353.701,0H55.087C24.665,0,0.002,24.662,0.002,55.085v298.616c0,30.423,24.662,55.085,55.085,55.085  h147.275l0.251-146.078h-37.951c-4.932,0-8.935-3.988-8.954-8.92l-0.182-47.087c-0.019-4.959,3.996-8.989,8.955-8.989h37.882  v-45.498c0-52.8,32.247-81.55,79.348-81.55h38.65c4.945,0,8.955,4.009,8.955,8.955v39.704c0,4.944-4.007,8.952-8.95,8.955  l-23.719,0.011c-25.615,0-30.575,12.172-30.575,30.035v39.389h56.285c5.363,0,9.524,4.683,8.892,10.009l-5.581,47.087  c-0.534,4.506-4.355,7.901-8.892,7.901h-50.453l-0.251,146.078h87.631c30.422,0,55.084-24.662,55.084-55.084V55.085  C408.786,24.662,384.124,0,353.701,0z"
   id="path4602" />
<g
   id="g4604">
</g>
<g
   id="g4606">
</g>
<g
   id="g4608">
</g>
<g
   id="g4610">
</g>
<g
   id="g4612">
</g>
<g
   id="g4614">
</g>
<g
   id="g4616">
</g>
<g
   id="g4618">
</g>
<g
   id="g4620">
</g>
<g
   id="g4622">
</g>
<g
   id="g4624">
</g>
<g
   id="g4626">
</g>
<g
   id="g4628">
</g>
<g
   id="g4630">
</g>
<g
   id="g4632">
</g>
<path
   style="fill:#033e8c;fill-opacity:0.69266058;stroke-width:1.73215246"
   d="M 42.437737,406.46984 C 26.984151,402.69097 12.722929,390.64917 5.3858956,375.18424 L 0.86607626,365.6574 V 204.53079 43.404183 L 6.5818113,31.793876 C 13.153937,18.443993 22.875014,9.4739096 36.297654,4.3737081 44.728179,1.1703609 51.335718,1.0392915 204.394,1.0392915 c 153.05828,0 159.66582,0.1310685 168.09634,3.3344166 13.42264,5.1002015 23.14372,14.0702849 29.71584,27.4201679 l 5.71574,11.610307 V 204.53079 365.6574 l -4.53793,9.67663 c -5.52673,11.78519 -14.25321,20.79941 -26.26568,27.13176 l -9.0359,4.76327 -50.66546,0.55037 -50.66546,0.55038 v -71.87974 -71.87973 l 26.7913,-0.55498 c 22.01249,-0.45597 27.29707,-1.06158 29.62678,-3.39524 3.59033,-3.59642 10.16513,-53.99187 7.65571,-58.68074 -2.54486,-4.75512 -5.39688,-5.16685 -35.79041,-5.16685 h -28.5943 l 0.5885,-26.41533 c 0.48971,-21.98115 1.11462,-27.19028 3.72274,-31.03187 4.991,-7.35144 14.44471,-10.10675 34.6771,-10.10675 25.26059,0 24.54614,0.84527 24.54614,-29.04074 0,-17.900507 -0.61325,-24.862473 -2.37727,-26.987996 -2.03734,-2.454841 -6.50572,-2.864452 -31.24788,-2.864452 -39.46371,0 -53.70102,3.934526 -70.59857,19.510137 -17.90959,16.508481 -23.09586,32.538181 -24.37088,75.325211 l -0.942,31.61179 h -19.34306 c -27.33609,0 -26.06774,-1.59151 -26.06774,32.70939 0,35.43172 -1.30605,33.77027 27.16935,34.56261 l 20.99265,0.58414 -1.12997,26.10658 c -0.6215,14.35863 -1.12999,46.63859 -1.12999,71.73324 v 45.62664 l -76.64775,-0.1773 c -42.156259,-0.0975 -78.986152,-0.74912 -81.844203,-1.44799 z"
   id="path4641"
   inkscape:connector-curvature="0" /><path
   style="fill:#022b61;fill-opacity:1;stroke-width:1.73215246"
   d="M 51.9538,406.50062 C 40.247238,405.66979 35.561216,404.48299 29.148202,400.7247 19.628607,395.14586 10.261098,384.70577 5.2944958,374.13978 1.7788756,366.66062 1.7321525,364.43614 1.7321525,204.53669 V 42.512162 L 6.7669708,32.538243 C 12.948045,20.293603 24.242886,9.5908353 35.610717,5.2064779 43.807211,2.0452455 50.959059,1.9053678 204.394,1.9053678 c 153.43493,0 160.58678,0.1398782 168.78328,3.3011101 11.36784,4.3843574 22.66267,15.0871251 28.84375,27.3317651 l 5.03481,9.973919 V 204.62508 366.738 l -4.36838,9.23398 c -4.88339,10.32266 -15.72459,21.20869 -27.07121,27.18318 -7.25666,3.82095 -9.39793,3.99117 -58.1993,4.62675 l -50.66546,0.65986 V 336.53958 264.6374 l 26.78957,-0.5885 c 21.15558,-0.46474 27.34596,-1.14554 29.43522,-3.23722 1.62444,-1.62632 3.58647,-9.64955 5.08303,-20.78583 4.98773,-37.11477 4.95363,-35.88506 1.10234,-39.73634 -3.26103,-3.26104 -5.67825,-3.51698 -33.21518,-3.51698 h -29.69822 l 0.92798,-26.18117 c 1.31268,-37.03487 3.55133,-39.46499 37.96172,-41.20841 13.16115,-0.66682 21.13201,-1.8261 22.58766,-3.28515 3.28233,-3.29001 3.17204,-48.936984 -0.12783,-52.910111 -2.03656,-2.452054 -6.5152,-2.862297 -31.24788,-2.862297 -41.5899,0 -57.58941,5.063919 -74.51644,23.584774 -15.5563,17.021084 -18.97304,28.970594 -20.37274,71.250574 l -1.04653,31.61179 h -19.33095 c -27.32212,0 -26.05559,-1.58996 -26.05559,32.70939 0,35.43006 -1.30413,33.77029 27.15679,34.56232 l 20.98009,0.58385 -1.10845,16.73767 c -0.60965,9.20574 -1.1125,41.48582 -1.11743,71.73353 l -0.009,54.99584 -67.12091,-0.27442 C 96.892282,407.66984 60.057539,407.07573 51.9538,406.50062 Z"
   id="path4643"
   inkscape:connector-curvature="0" /></svg>