<?xml version="1.0" encoding="UTF-8" standalone="no"?>
<svg
   xmlns:dc="http://purl.org/dc/elements/1.1/"
   xmlns:cc="http://creativecommons.org/ns#"
   xmlns:rdf="http://www.w3.org/1999/02/22-rdf-syntax-ns#"
   xmlns:svg="http://www.w3.org/2000/svg"
   xmlns="http://www.w3.org/2000/svg"
   xmlns:sodipodi="http://sodipodi.sourceforge.net/DTD/sodipodi-0.dtd"
   xmlns:inkscape="http://www.inkscape.org/namespaces/inkscape"
   height="512pt"
   viewBox="0 0 512 512"
   width="512pt"
   version="1.1"
   id="svg22"
   sodipodi:docname="linkedin.svg"
   inkscape:version="0.92.4 (5da689c313, 2019-01-14)">
  <metadata
     id="metadata28">
    <rdf:RDF>
      <cc:Work
         rdf:about="">
        <dc:format>image/svg+xml</dc:format>
        <dc:type
           rdf:resource="http://purl.org/dc/dcmitype/StillImage" />
      </cc:Work>
    </rdf:RDF>
  </metadata>
  <defs
     id="defs26" />
  <sodipodi:namedview
     pagecolor="#ffffff"
     bordercolor="#666666"
     borderopacity="1"
     objecttolerance="10"
     gridtolerance="10"
     guidetolerance="10"
     inkscape:pageopacity="0"
     inkscape:pageshadow="2"
     inkscape:window-width="1920"
     inkscape:window-height="1001"
     id="namedview24"
     showgrid="false"
     inkscape:zoom="1.1835938"
     inkscape:cx="195.16832"
     inkscape:cy="341.33333"
     inkscape:window-x="-9"
     inkscape:window-y="-9"
     inkscape:window-maximized="1"
     inkscape:current-layer="svg22" />
  <path
     d="m160.007812 423h-70v-226h70zm6.984376-298.003906c0-22.628906-18.359376-40.996094-40.976563-40.996094-22.703125 0-41.015625 18.367188-41.015625 40.996094 0 22.636718 18.3125 41.003906 41.015625 41.003906 22.617187 0 40.976563-18.367188 40.976563-41.003906zm255.007812 173.667968c0-60.667968-12.816406-105.664062-83.6875-105.664062-34.054688 0-56.914062 17.03125-66.246094 34.742188h-.066406v-30.742188h-68v226h68v-112.210938c0-29.386718 7.480469-57.855468 43.90625-57.855468 35.929688 0 37.09375 33.605468 37.09375 59.722656v110.34375h69zm90 153.335938v-392c0-33.085938-26.914062-60-60-60h-392c-33.085938 0-60 26.914062-60 60v392c0 33.085938 26.914062 60 60 60h392c33.085938 0 60-26.914062 60-60zm-60-412c11.027344 0 20 8.972656 20 20v392c0 11.027344-8.972656 20-20 20h-392c-11.027344 0-20-8.972656-20-20v-392c0-11.027344 8.972656-20 20-20zm0 0"
     id="path20" />
  <path
     style="fill:#033e8c;fill-opacity:0.00392157;stroke-width:0.84488451"
     d="M 272.05281,413.233 V 263.26601 h 45.18629 45.1863 l 0.22624,20.42635 0.22625,20.42635 3.09737,-5.00721 c 11.02247,-17.8189 32.33676,-32.09908 56.65888,-37.9604 18.35941,-4.42437 44.28044,-4.27071 65.28665,0.38704 17.49441,3.87907 33.36763,12.56754 44.47927,24.34647 7.25241,7.68794 10.13461,11.96595 15.10832,22.42514 6.91646,14.54456 11.18687,32.13631 13.57464,55.91995 0.58814,5.85817 1.09083,44.35211 1.35987,104.13202 L 562.8697,563.2 h -45.6263 -45.62632 l -0.39655,-85.12211 c -0.4255,-91.3345 -0.51094,-93.20933 -4.91884,-107.934 -7.03223,-23.49125 -23.46102,-34.48776 -49.35119,-33.03293 -27.43067,1.54139 -43.57218,14.85352 -50.79552,41.89176 -3.43795,12.86889 -3.66591,19.26236 -3.68304,103.29959 L 362.45545,563.2 h -45.20132 -45.20132 z"
     id="path30"
     inkscape:connector-curvature="0"
     transform="scale(0.74999998)" />
  <path
     style="fill:#033e8c;fill-opacity:0.00392157;stroke-width:0.84488451"
     d="M 120.6495,413.233 V 263.26601 h 46.04621 46.0462 V 413.233 563.2 h -46.0462 -46.04621 z"
     id="path4543"
     inkscape:connector-curvature="0"
     transform="scale(0.74999998)" />
  <path
     style="fill:#033e8c;fill-opacity:0.00392157;stroke-width:0.84488451"
     d="m 156.70507,219.64695 c -24.93051,-5.34853 -42.84872,-27.55434 -42.80215,-53.04415 0.0385,-21.05561 11.69667,-39.44388 30.82579,-48.62094 8.64823,-4.14892 14.20145,-5.40406 23.65677,-5.34689 29.95921,0.18115 53.65016,24.14663 53.65016,54.27185 0,8.96924 -1.55049,15.32991 -5.87996,24.12156 -10.78238,21.8953 -35.4467,33.76831 -59.45061,28.61857 z"
     id="path4545"
     inkscape:connector-curvature="0"
     transform="scale(0.74999998)" />
  <path
     style="fill:#033e8c;fill-opacity:0.00392157;stroke-width:0.84488451"
     d="M 272.72871,413.233 V 263.26601 h 44.76386 44.76385 l 0.22625,20.45047 0.22624,20.45048 3.80198,-5.86153 c 11.98431,-18.47625 34.43437,-32.75811 59.76089,-38.01758 20.24963,-4.20517 50.02781,-2.70216 69.72154,3.51908 33.89145,10.70631 53.16553,34.35529 61.45878,75.40891 4.29908,21.28156 4.41656,24.38644 4.82251,127.45611 L 562.65478,563.2 h -45.68911 -45.6891 l -0.0247,-78.36304 c -0.0248,-78.7567 -0.46629,-94.52065 -2.99844,-107.05493 -5.88628,-29.13745 -23.04646,-42.56733 -52.00084,-40.69683 -31.71662,2.04893 -48.99277,21.15581 -53.0301,58.64959 -0.6165,5.7256 -0.93605,35.79315 -0.93605,88.0792 V 563.2 h -44.77888 -44.77888 z"
     id="path4547"
     inkscape:connector-curvature="0"
     transform="scale(0.74999998)" />
  <path
     style="fill:#033e8c;fill-opacity:0.00392157;stroke-width:0.84488451"
     d="M 70.378878,681.73664 C 63.59225,680.80185 53.176236,677.81938 47.436372,675.1674 23.189232,663.96453 5.5093717,640.95035 1.5478876,615.43356 0.84117553,610.88147 0.65483389,537.4567 0.84282542,337.61584 L 1.0983498,65.985479 3.0569154,59.226403 C 10.931982,32.049284 30.85812,11.9886 58.617172,3.290993 L 66.154455,0.92937294 H 340.74191 615.32937 l 7.04349,1.92576466 c 28.34425,7.7496204 49.56543,29.0141124 57.46758,57.5848694 l 2.23481,8.080125 V 340.99538 613.47063 l -1.91063,7.50003 c -4.43171,17.39635 -14.38439,33.01142 -27.87234,43.7298 -7.39361,5.87543 -20.85723,12.70265 -30.20383,15.31597 l -6.75908,1.88984 -271.20792,0.0898 C 194.9571,682.04536 71.772937,681.92869 70.378878,681.73664 Z M 609.30749,628.6711 c 8.53572,-2.22328 14.43559,-7.36668 18.45858,-16.09187 l 1.92634,-4.17791 V 341.84026 c 0,-255.620761 -0.0631,-266.742069 -1.5381,-270.971551 -2.04249,-5.856851 -7.87544,-12.221703 -13.92108,-15.190514 l -4.81805,-2.365984 H 341.16436 72.913531 l -4.224422,2.092053 c -5.401331,2.674891 -11.033578,8.306264 -13.374488,13.372412 l -1.833433,3.967878 V 341.41782 610.09109 l 1.988563,4.00156 c 3.685971,7.41723 10.728155,13.10604 18.486762,14.93395 1.811423,0.42677 116.711227,0.78608 266.819117,0.83441 232.48814,0.0749 264.21593,-0.0657 268.53186,-1.18991 z"
     id="path4549"
     inkscape:connector-curvature="0"
     transform="scale(0.74999998)" />
  <path
     style="fill:#033e8c;fill-opacity:0.00392157;stroke-width:0.84488451"
     d="M 70.378878,681.73664 C 63.59225,680.80185 53.176236,677.81938 47.436372,675.1674 23.189232,663.96453 5.5093717,640.95035 1.5478876,615.43356 0.84117553,610.88147 0.65483389,537.4567 0.84282542,337.61584 L 1.0983498,65.985479 3.0569154,59.226403 C 10.931982,32.049284 30.85812,11.9886 58.617172,3.290993 L 66.154455,0.92937294 H 340.74191 615.32937 l 7.04349,1.92576466 c 28.34425,7.7496204 49.56543,29.0141124 57.46758,57.5848694 l 2.23481,8.080125 V 340.99538 613.47063 l -1.91063,7.50003 c -4.43171,17.39635 -14.38439,33.01142 -27.87234,43.7298 -7.39361,5.87543 -20.85723,12.70265 -30.20383,15.31597 l -6.75908,1.88984 -271.20792,0.0898 C 194.9571,682.04536 71.772937,681.92869 70.378878,681.73664 Z M 609.30749,628.6711 c 8.53572,-2.22328 14.43559,-7.36668 18.45858,-16.09187 l 1.92634,-4.17791 V 341.84026 c 0,-255.620761 -0.0631,-266.742069 -1.5381,-270.971551 -2.04249,-5.856851 -7.87544,-12.221703 -13.92108,-15.190514 l -4.81805,-2.365984 H 341.16436 72.913531 l -4.224422,2.092053 c -5.401331,2.674891 -11.033578,8.306264 -13.374488,13.372412 l -1.833433,3.967878 V 341.41782 610.09109 l 1.988563,4.00156 c 3.685971,7.41723 10.728155,13.10604 18.486762,14.93395 1.811423,0.42677 116.711227,0.78608 266.819117,0.83441 232.48814,0.0749 264.21593,-0.0657 268.53186,-1.18991 z"
     id="path4551"
     inkscape:connector-curvature="0"
     transform="scale(0.74999998)" />
  <path
     style="fill:#033e8c;fill-opacity:0.00392157;stroke-width:0.84488451"
     d="M 272.72871,413.233 V 263.26601 h 44.76386 44.76385 l 0.22625,20.45047 0.22624,20.45048 3.80198,-5.86153 c 11.98431,-18.47625 34.43437,-32.75811 59.76089,-38.01758 20.24963,-4.20517 50.02781,-2.70216 69.72154,3.51908 33.89145,10.70631 53.16553,34.35529 61.45878,75.40891 4.29908,21.28156 4.41656,24.38644 4.82251,127.45611 L 562.65478,563.2 h -45.68911 -45.6891 l -0.0247,-78.36304 c -0.0248,-78.7567 -0.46629,-94.52065 -2.99844,-107.05493 -5.88628,-29.13745 -23.04646,-42.56733 -52.00084,-40.69683 -31.71662,2.04893 -48.99277,21.15581 -53.0301,58.64959 -0.6165,5.7256 -0.93605,35.79315 -0.93605,88.0792 V 563.2 h -44.77888 -44.77888 z"
     id="path4553"
     inkscape:connector-curvature="0"
     transform="scale(0.74999998)" />
  <path
     style="fill:#033e8c;fill-opacity:0.69266057;stroke-width:0.84488451"
     d="M 70.378878,681.73664 C 63.59225,680.80185 53.176236,677.81938 47.436372,675.1674 23.189232,663.96453 5.5093717,640.95035 1.5478876,615.43356 0.84117553,610.88147 0.65483389,537.4567 0.84282542,337.61584 L 1.0983498,65.985479 3.0569154,59.226403 C 10.931982,32.049284 30.85812,11.9886 58.617172,3.290993 L 66.154455,0.92937294 H 340.74191 615.32937 l 7.04349,1.92576466 c 28.34425,7.7496204 49.56543,29.0141124 57.46758,57.5848694 l 2.23481,8.080125 V 340.99538 613.47063 l -1.91063,7.50003 c -4.43171,17.39635 -14.38439,33.01142 -27.87234,43.7298 -7.39361,5.87543 -20.85723,12.70265 -30.20383,15.31597 l -6.75908,1.88984 -271.20792,0.0898 C 194.9571,682.04536 71.772937,681.92869 70.378878,681.73664 Z M 609.30749,628.6711 c 8.53572,-2.22328 14.43559,-7.36668 18.45858,-16.09187 l 1.92634,-4.17791 V 341.84026 c 0,-255.620761 -0.0631,-266.742069 -1.5381,-270.971551 -2.04249,-5.856851 -7.87544,-12.221703 -13.92108,-15.190514 l -4.81805,-2.365984 H 341.16436 72.913531 l -4.224422,2.092053 c -5.401331,2.674891 -11.033578,8.306264 -13.374488,13.372412 l -1.833433,3.967878 V 341.41782 610.09109 l 1.988563,4.00156 c 3.685971,7.41723 10.728155,13.10604 18.486762,14.93395 1.811423,0.42677 116.711227,0.78608 266.819117,0.83441 232.48814,0.0749 264.21593,-0.0657 268.53186,-1.18991 z"
     id="path4555"
     inkscape:connector-curvature="0"
     transform="scale(0.74999998)" />
  <path
     style="fill:#033e8c;fill-opacity:0.69266058;stroke-width:0.84488451"
     d="M 272.72871,413.233 V 263.26601 h 44.76386 44.76385 l 0.22625,20.45047 0.22624,20.45048 3.80198,-5.86153 c 11.98431,-18.47625 34.43437,-32.75811 59.76089,-38.01758 20.24963,-4.20517 50.02781,-2.70216 69.72154,3.51908 33.89145,10.70631 53.16553,34.35529 61.45878,75.40891 4.29908,21.28156 4.41656,24.38644 4.82251,127.45611 L 562.65478,563.2 h -45.68911 -45.6891 l -0.0247,-78.36304 c -0.0248,-78.7567 -0.46629,-94.52065 -2.99844,-107.05493 -5.88628,-29.13745 -23.04646,-42.56733 -52.00084,-40.69683 -31.71662,2.04893 -48.99277,21.15581 -53.0301,58.64959 -0.6165,5.7256 -0.93605,35.79315 -0.93605,88.0792 V 563.2 h -44.77888 -44.77888 z"
     id="path4557"
     inkscape:connector-curvature="0"
     transform="scale(0.74999998)" />
  <path
     style="fill:#033e8c;fill-opacity:0.69266058;stroke-width:0.84488451"
     d="M 120.6495,413.233 V 263.26601 h 46.04621 46.0462 V 413.233 563.2 h -46.0462 -46.04621 z"
     id="path4559"
     inkscape:connector-curvature="0"
     transform="scale(0.74999998)" />
  <path
     style="fill:#033e8c;fill-opacity:0.69266058;stroke-width:0.84488451"
     d="m 156.70507,219.64695 c -24.93051,-5.34853 -42.84872,-27.55434 -42.80215,-53.04415 0.0385,-21.05561 11.69667,-39.44388 30.82579,-48.62094 8.64823,-4.14892 14.20145,-5.40406 23.65677,-5.34689 29.95921,0.18115 53.65016,24.14663 53.65016,54.27185 0,8.96924 -1.55049,15.32991 -5.87996,24.12156 -10.78238,21.8953 -35.4467,33.76831 -59.45061,28.61857 z"
     id="path4561"
     inkscape:connector-curvature="0"
     transform="scale(0.74999998)" />
</svg>
